<svg xmlns="http://www.w3.org/2000/svg" xmlns:xlink="http://www.w3.org/1999/xlink" width="343" height="265" viewBox="0 0 343 265">
    <defs>
        <path id="a" d="M0 .608h342.685V265H0z"/>
        <path id="c" d="M0 265.392h342.685V1H0z"/>
    </defs>
    <g fill="none" fill-rule="evenodd" transform="translate(0 -1)">
        <g transform="translate(0 .392)">
            <mask id="b" fill="#fff">
                <use xlink:href="#a"/>
            </mask>
            <path fill="#EAE6FF" d="M339.903 158.813c-5.93-16.53-15.267-21.562-24.146-32.164-10.847-12.95-18.163-22.364-15.347-39.02 4.602-27.219 6.572-95.1-65.486-86.228-25.826 3.181-46.235 22.973-61.083 42.728-12.633 16.811-35.36 18.293-53.652 22.213-22.475 4.816-45.37 12.09-66.164 22.747C11.199 111.04-1.592 142.594.154 182.97c.528 12.197 2.255 31.41 22.859 53.892 27.81 30.345 68.224 34.408 116.865 20.473 11.133-3.19 21.657-8.194 32.609-11.96a153.845 153.845 0 0 1 35.194-7.642c27.937-2.7 56.896 2.184 83.695-6.157 14.17-4.41 27.183-12.48 37.432-23.215 12.8-13.407 17.353-32.1 11.095-49.547" mask="url(#b)"/>
        </g>
        <path fill="#CDCCFF" d="M23.013 221.483c0 3.986 50.598 7.222 113.02 7.222 62.413 0 113.01-3.236 113.01-7.222 0-3.99-50.597-7.225-113.01-7.225-62.422 0-113.02 3.235-113.02 7.225"/>
        <path fill="#CDCCFF" d="M91.977 230.399c0 2.496-12.845 4.519-28.689 4.519-15.846 0-28.69-2.023-28.69-4.52 0-2.495 12.844-4.52 28.69-4.52 15.844 0 28.69 2.025 28.69 4.52M330.972 231.342c0 1.975-21.553 3.575-48.139 3.575-26.586 0-48.137-1.6-48.137-3.575s21.551-3.576 48.137-3.576c26.586 0 48.14 1.601 48.14 3.576"/>
        <path fill="#D7D7FF" d="M34.297 171.877l-1.849 25.888h24.696l-1.7-25.937z"/>
        <path fill="#EAE6FF" d="M40.043 173.707c-.317 0-.573.2-.573.444s.258.442.574.442c.317-.001.575-.2.574-.444-.001-.244-.258-.442-.574-.442h-.001zm-.847.445c0-.395.379-.717.846-.72.468 0 .849.322.85.717 0 .394-.38.717-.846.718h-.001c-.467 0-.847-.32-.85-.715zM48.46 173.688a.629.629 0 0 0-.453.175.371.371 0 0 0-.119.268c.002.244.26.443.575.443a.657.657 0 0 0 .416-.141.393.393 0 0 0 .157-.304c-.002-.243-.258-.441-.574-.441h-.003zm-.846.444h.138-.138a.658.658 0 0 1 .2-.464.912.912 0 0 1 .645-.253h.005c.465 0 .845.319.846.713a.662.662 0 0 1-.258.517.927.927 0 0 1-.587.202h-.002c-.467 0-.848-.32-.849-.715z"/>
        <path fill="#EAE6FF" d="M44.002 179.357c.078 0 .157-.001.238-.004 1.548-.052 2.728-.55 3.508-1.48 1.29-1.541.998-3.691.985-3.782a.27.27 0 0 0-.31-.23.273.273 0 0 0-.233.309c.004.019.27 2.003-.864 3.355-.676.804-1.72 1.235-3.102 1.282-1.34.039-2.338-.308-3.003-1.048-1.206-1.342-.91-3.548-.907-3.571a.274.274 0 0 0-.233-.31.278.278 0 0 0-.309.233c-.014.1-.335 2.475 1.04 4.01.735.82 1.806 1.236 3.19 1.236"/>
        <path fill="#BDC6F9" d="M45.912 179.133l-2.951 19.248 26.81-.062-2.713-19.236z"/>
        <path fill="#8784EF" d="M35.982 219.595a2.522 2.522 0 0 1-2.525-2.524 2.53 2.53 0 0 1 5.06 0 2.524 2.524 0 0 1-2.535 2.524m0-7.963a5.44 5.44 0 0 0 0 10.877 5.438 5.438 0 0 0 0-10.877"/>
        <path fill="#9AA3F4" d="M35.087 219.595a2.522 2.522 0 0 1-2.524-2.524 2.53 2.53 0 0 1 5.06 0 2.524 2.524 0 0 1-2.536 2.524m0-7.963a5.44 5.44 0 0 0 0 10.877 5.438 5.438 0 0 0 0-10.877"/>
        <path fill="#8784EF" d="M66.707 219.595a2.522 2.522 0 0 1-2.525-2.524 2.53 2.53 0 0 1 5.06 0 2.525 2.525 0 0 1-2.535 2.524m0-7.963a5.44 5.44 0 0 0 0 10.877 5.438 5.438 0 0 0 0-10.877"/>
        <path fill="#9AA3F4" d="M65.812 219.595a2.521 2.521 0 0 1-2.524-2.524 2.529 2.529 0 0 1 5.059 0 2.524 2.524 0 0 1-2.535 2.524m0-7.963a5.44 5.44 0 0 0 0 10.877 5.438 5.438 0 0 0 0-10.877"/>
        <path stroke="#9AA3F4" stroke-width="1.5" d="M107.75 150.59H91.41c-1.72 0-3.316.887-4.225 2.346l-9.877 15.857"/>
        <path stroke="#9AA3F4" stroke-width="1.5" d="M33.407 197.939H69.92a3.96 3.96 0 0 0 3.909-3.332l3.778-23.57a3.958 3.958 0 0 0-3.91-4.584h-44.07a3.959 3.959 0 0 0-3.908 4.585l3.779 23.569a3.957 3.957 0 0 0 3.908 3.332zM51.664 166.452v31.487M75.819 182.196H27.508M66.085 166.452l-3.124 31.487M37.963 166.452l2.885 31.487"/>
        <path stroke="#9AA3F4" stroke-width="1.5" d="M72.968 196.506l5.915 8.798c1.61 2.393-.105 5.614-2.99 5.614H27.508"/>
        <mask id="d" fill="#fff">
            <use xlink:href="#c"/>
        </mask>
        <path fill="#4A41A3" d="M150.032 214.159h50.088v-13.475h-50.088z" mask="url(#d)"/>
        <path fill="#5851BC" d="M252.77 205.083H97.909c-5.184 0-9.387-4.203-9.387-9.388V89.551a9.387 9.387 0 0 1 9.387-9.387H252.77a9.386 9.386 0 0 1 9.387 9.387v106.144a9.387 9.387 0 0 1-9.387 9.388" mask="url(#d)"/>
        <path fill="#C4C3FC" d="M251.011 193.098H99.14a5.768 5.768 0 0 1-5.768-5.768V90.487a5.767 5.767 0 0 1 5.768-5.768h151.872a5.767 5.767 0 0 1 5.768 5.768v96.843a5.768 5.768 0 0 1-5.768 5.768" mask="url(#d)"/>
        <path fill="#5851BC" d="M221.649 221.482h-93.146v-1.173a7.322 7.322 0 0 1 7.322-7.322h78.502a7.322 7.322 0 0 1 7.322 7.322v1.173z" mask="url(#d)"/>
        <path fill="#FFF" d="M241.722 169.059H137.405a5.01 5.01 0 0 1-5.01-5.01V97.214a5.01 5.01 0 0 1 5.01-5.009h104.317a5.01 5.01 0 0 1 5.01 5.009v66.835a5.01 5.01 0 0 1-5.01 5.01" mask="url(#d)"/>
        <g mask="url(#d)">
            <path fill="#FCA70C" d="M143.262 160.85h4.98v-12.504h-4.98z"/>
            <path fill="#B1AFFD" d="M154.484 160.85h4.98v-23.48h-4.98z"/>
            <path fill="#FCA70C" d="M165.708 160.85h4.98v-21.053h-4.98z"/>
            <path fill="#B1AFFD" d="M176.931 160.85h4.98v-32.938h-4.98z"/>
            <path fill="#000" d="M154.484 160.85h2.286v-23.48h-2.286zM143.261 160.85h2.286v-12.504h-2.286zM176.93 160.85h2.286v-32.938h-2.286zM165.708 160.85h2.285v-21.053h-2.285z"/>
            <path fill="#D5DBDA" d="M184.546 164.291h-44.574v-47.463h.68v46.783h43.894z"/>
            <path fill="#D5DBDA" d="M144.55 142.49l-.454-.505 11.66-10.471 10.8 2.347 11.695-13.02.506.455-11.959 13.313-10.847-2.356z"/>
            <path fill="#D5DBDA" d="M179.673 123.22l-3.297-3.163 4.257-1.14z"/>
            <path fill="#B1AFFD" d="M188.767 150.879h3.42v-3.42h-3.42z"/>
            <path fill="#FCA70C" d="M188.767 156.872h3.42v-3.42h-3.42z"/>
            <path fill="#EFEFEF" d="M193.129 156.872h10.842v-1.943h-10.842zM193.129 150.879h10.842v-1.943h-10.842z"/>
            <path fill="#B1AFFD" d="M208.881 150.879h3.421v-3.42h-3.421z"/>
            <path fill="#FCA70C" d="M208.881 156.872h3.421v-3.42h-3.421z"/>
            <path fill="#EFEFEF" d="M213.244 156.872h10.842v-1.943h-10.842zM213.244 150.879h10.842v-1.943h-10.842z"/>
            <path fill="#B1AFFD" d="M226.995 150.879h3.421v-3.42h-3.421z"/>
            <path fill="#FCA70C" d="M226.995 156.872h3.421v-3.42h-3.421z"/>
            <path fill="#EFEFEF" d="M231.357 156.872h7.135v-1.943h-7.135zM231.357 150.879h7.135v-1.943h-7.135zM189.407 115.672h49.085v-.893h-49.085zM139.972 105.869h98.52v-2.042h-98.52zM189.261 118.447h49.231v-.892h-49.231zM189.261 112.897h49.231v-.893h-49.231zM189.261 121.222h49.231v-.893h-49.231zM189.261 123.997h49.231v-.893h-49.231zM189.261 126.773h49.231v-.893h-49.231zM189.261 129.548h49.231v-.893h-49.231zM189.261 132.324h49.231v-.893h-49.231zM189.261 135.099h49.231v-.893h-49.231zM195.288 137.874h43.204v-.893h-43.204z"/>
            <path fill="#7A7AE5" d="M241.722 92.204H137.405a5.01 5.01 0 0 0-5.01 5.01v4.386h114.337v-4.385a5.01 5.01 0 0 0-5.01-5.01"/>
            <path fill="#CFCFFF" d="M232.026 97.074a1.443 1.443 0 1 1-2.89 0 1.444 1.444 0 0 1 2.89 0M237.914 97.074a1.443 1.443 0 1 1-2.89 0 1.444 1.444 0 0 1 2.89 0M243.801 97.074a1.443 1.443 0 1 1-2.889 0 1.444 1.444 0 0 1 2.89 0"/>
        </g>
        <path fill="#C4C3FC" d="M211.35 186.059H107.033a5.01 5.01 0 0 1-5.01-5.01v-66.835a5.01 5.01 0 0 1 5.01-5.009H211.35a5.01 5.01 0 0 1 5.01 5.009v66.835a5.01 5.01 0 0 1-5.01 5.01" mask="url(#d)"/>
        <path fill="#FFF" d="M213.67 183.066H109.351a5.01 5.01 0 0 1-5.01-5.01V111.22a5.01 5.01 0 0 1 5.01-5.01H213.67a5.01 5.01 0 0 1 5.01 5.01v66.835a5.01 5.01 0 0 1-5.01 5.01" mask="url(#d)"/>
        <path fill="#FCA70C" d="M115.209 174.857h4.98v-12.504h-4.98z" mask="url(#d)"/>
        <path fill="#B1AFFD" d="M126.432 174.856h4.98v-23.48h-4.98z" mask="url(#d)"/>
        <path fill="#FCA70C" d="M137.655 174.857h4.98v-21.053h-4.98z" mask="url(#d)"/>
        <path fill="#B1AFFD" d="M148.878 174.856h4.98v-32.938h-4.98z" mask="url(#d)"/>
        <path fill="#000" d="M126.431 174.857h2.286v-23.48h-2.286zM115.208 174.857h2.286v-12.504h-2.286zM148.877 174.857h2.286v-32.938h-2.286zM137.655 174.857h2.285v-21.053h-2.285z" mask="url(#d)"/>
        <path fill="#D5DBDA" d="M156.494 178.298H111.92v-43.223h.679v42.543h43.895z" mask="url(#d)"/>
        <path fill="#D5DBDA" d="M116.498 156.497l-.454-.506 11.66-10.47 10.8 2.346 11.695-13.019.506.454-11.96 13.313-10.846-2.356z" mask="url(#d)"/>
        <path fill="#D5DBDA" d="M151.622 137.226l-3.298-3.162 4.257-1.14z" mask="url(#d)"/>
        <path fill="#B1AFFD" d="M160.714 164.887h3.42v-3.421h-3.42z" mask="url(#d)"/>
        <path fill="#FCA70C" d="M160.714 170.879h3.42v-3.42h-3.42z" mask="url(#d)"/>
        <path fill="#EFEFEF" d="M165.076 170.879h10.842v-1.943h-10.842zM165.076 164.887h10.842v-1.944h-10.842z" mask="url(#d)"/>
        <path fill="#B1AFFD" d="M180.829 164.887h3.42v-3.421h-3.42z" mask="url(#d)"/>
        <path fill="#FCA70C" d="M180.829 170.879h3.42v-3.42h-3.42z" mask="url(#d)"/>
        <path fill="#EFEFEF" d="M185.192 170.879h10.842v-1.943h-10.842zM185.192 164.887h10.842v-1.944h-10.842z" mask="url(#d)"/>
        <path fill="#B1AFFD" d="M198.942 164.887h3.421v-3.421h-3.421z" mask="url(#d)"/>
        <path fill="#FCA70C" d="M198.942 170.879h3.421v-3.42h-3.421z" mask="url(#d)"/>
        <path fill="#EFEFEF" d="M203.305 170.879h7.134v-1.943h-7.134zM203.305 164.887h7.134v-1.944h-7.134zM161.355 129.679h49.084v-.893h-49.084zM111.919 119.876h98.52v-2.043h-98.52zM161.208 132.454h49.231v-.893h-49.231zM161.208 126.904h49.231v-.893h-49.231zM161.208 135.23h49.231v-.893h-49.231zM161.208 138.004h49.231v-.892h-49.231zM161.208 140.78h49.231v-.893h-49.231zM161.208 143.555h49.231v-.893h-49.231zM161.208 146.33h49.231v-.893h-49.231zM161.208 149.106h49.231v-.893h-49.231zM167.235 151.881h43.204v-.893h-43.204z" mask="url(#d)"/>
        <path fill="#A4A4F7" d="M213.67 106.211H109.351a5.01 5.01 0 0 0-5.01 5.01v4.385H218.68v-4.385a5.01 5.01 0 0 0-5.01-5.01" mask="url(#d)"/>
        <path fill="#CFCFFF" d="M203.973 111.08a1.444 1.444 0 1 1-2.888.002 1.444 1.444 0 0 1 2.888-.002M209.86 111.08a1.444 1.444 0 1 1-2.888.002 1.444 1.444 0 0 1 2.889-.002M215.749 111.08a1.444 1.444 0 1 1-2.889.002 1.444 1.444 0 0 1 2.888-.002" mask="url(#d)"/>
        <path fill="#5851BC" d="M252.26 80.251h-26.775c.182 8.683.333 17.365.442 26.05.017 1.327 0 2.697-.484 3.924h-.04c-.357-.02-.2.09-.322.725l-.008.03c-1.083 1.767-3.196 2.734-5.252 3.19a.532.532 0 0 0 .032.286c-.239.214-.349.478-.206.81.124.29 1.663.682 3.754.457.597-.065 1.773-.39 2.32-.643.326-.15.621-.377.852-.582.272-.032.54-.089.784-.188l.085.08 2.395-1.044s-.262-1.512-.469-2.299a1.382 1.382 0 0 0-.158-.37c1.996-5.438 3.588-11.024 4.701-16.708-.436 7.052-2.969 21.38-3.157 21.872-.318.833-1.416 2.002-3.046 2.138-.567.047-3.355-.114-3.054 1.168.072.307 1.52.961 3.618 1.102.6.04 1.813-.077 2.394-.23.783-.207 1.493-.814 1.493-.814l.324.432 2.54-.613s-.004-.662-.02-1.458c-.016-.794-.545-1.548-.545-1.548l.035-1.445 1.41-.166s2.827-9.146 4.17-12.258c.553-1.282 1.167-2.546 1.52-3.897.412-1.587.452-3.242.582-4.876.238-2.98.787-5.937 1.636-8.804.054-.182.113-.37.24-.513.223-.249.592-.292.925-.323 3.6-.33 5.25.283 7.501-.416 2.97-.92 3.285-2.268 3.43-2.333a9.359 9.359 0 0 0-3.648-.736M262.157 140.183v-31.051c-4.631 6.061-9.213 11.494-13.845 17.556-2.01 2.63-9.878 11.342-4.51 14.838 1.37.892 3.756.85 4.948.935 4.282.303 8.525-.882 12.688-2.058.24-.068.48-.141.719-.22M255.374 146.53c-.591.048-1.226-.355-1.42-.901-.192-.546.129-1.028.72-1.076.59-.047 1.225.356 1.418.9.194.547-.128 1.028-.718 1.077zm6.782.332l-2.577.199-.048-.146-2.007.155-.603-1.707c-.346-.972-1.477-1.691-2.53-1.605-1.052.085-1.625.944-1.281 1.917l.598 1.69-2.11.163.045.148-4.349.335c-.687.005-1.702.892-1.482 1.512l.035.09c.01.056 0 .105.02.162l3.763 10.61-.096 44.699h4.364l8.258-32.107v-26.115zM99.435 128.445c-.972 1.07-2.116 3.352-2.582 4.333-.492.969-1.024 1.517-2.408 2.167-1.91.873-3.957 1.71-5.923 2.483v5.07c4-2.405 7.618-4.65 7.68-4.672 3.057 1.169 5.614-1.373 6.434-3.207.368-.822-.184-1.158-.21-1.55-.012-.203.25-1.394.21-1.547-.239-1.07-3.114-.135-2.875-.644.141-.39.476-1.301 1.196-1.793 1.408-.961 2.488-2.028 2.488-2.431 0-.696-3.678 1.425-4.01 1.79" mask="url(#d)"/>
        <path fill="#A2A7F4" d="M314.9 232.286h-53.611a6.95 6.95 0 0 1-6.95-6.95v-64.17a6.95 6.95 0 0 1 6.95-6.95h53.61a6.949 6.949 0 0 1 6.95 6.95v64.17a6.949 6.949 0 0 1-6.95 6.95" mask="url(#d)"/>
        <path fill="#9090F4" d="M315.906 178.422h-53.55a1.773 1.773 0 0 1-1.771-1.773v-12.49c0-.979.794-1.773 1.772-1.773h53.549c.979 0 1.772.794 1.772 1.773v12.49c0 .98-.793 1.773-1.772 1.773M273.492 194.287h-11.135a1.772 1.772 0 0 1-1.772-1.772v-6.632c0-.98.794-1.775 1.772-1.775h11.135c.979 0 1.773.794 1.773 1.774v6.633c0 .98-.794 1.773-1.773 1.773M294.699 194.287h-11.135a1.772 1.772 0 0 1-1.772-1.772v-6.632c0-.98.793-1.775 1.772-1.775h11.135c.979 0 1.773.794 1.773 1.774v6.633c0 .98-.794 1.773-1.773 1.773M315.906 194.287H304.77a1.772 1.772 0 0 1-1.773-1.772v-6.632c0-.98.794-1.775 1.773-1.775h11.135c.979 0 1.772.794 1.772 1.774v6.633c0 .98-.793 1.773-1.772 1.773M273.492 210.65h-11.135a1.772 1.772 0 0 1-1.772-1.771v-6.633c0-.98.794-1.774 1.772-1.774h11.135c.979 0 1.773.794 1.773 1.774v6.633c0 .979-.794 1.772-1.773 1.772M294.699 210.65h-11.135a1.772 1.772 0 0 1-1.772-1.771v-6.633c0-.98.793-1.774 1.772-1.774h11.135c.979 0 1.773.794 1.773 1.774v6.633c0 .979-.794 1.772-1.773 1.772M273.492 227.015h-11.135a1.773 1.773 0 0 1-1.772-1.773v-6.633c0-.98.794-1.774 1.772-1.774h11.135c.979 0 1.773.794 1.773 1.774v6.633c0 .979-.794 1.773-1.773 1.773M294.699 227.015h-11.135a1.772 1.772 0 0 1-1.772-1.773v-6.633c0-.98.793-1.774 1.772-1.774h11.135c.979 0 1.773.794 1.773 1.774v6.633c0 .979-.794 1.773-1.773 1.773M315.906 227.015H304.77a1.773 1.773 0 0 1-1.773-1.773v-22.997c0-.979.794-1.773 1.773-1.773h11.135c.979 0 1.772.794 1.772 1.773v22.997c0 .979-.793 1.773-1.772 1.773" mask="url(#d)"/>
        <g fill="#E2DEFF" mask="url(#d)">
            <path d="M259.547 163.122c0-.979.793-1.773 1.772-1.773h53.55c.98 0 1.772.794 1.772 1.773v12.49c0 .98-.793 1.773-1.773 1.773H261.32M272.455 193.25H261.32a1.772 1.772 0 0 1-1.772-1.772v-6.634c0-.979.793-1.773 1.772-1.773h11.135c.979 0 1.773.794 1.773 1.773v6.634c0 .978-.794 1.772-1.773 1.772M293.662 193.25h-11.135a1.773 1.773 0 0 1-1.773-1.772v-6.634c0-.979.794-1.773 1.773-1.773h11.135c.979 0 1.773.794 1.773 1.773v6.634c0 .978-.794 1.772-1.773 1.772M314.869 193.25h-11.135a1.773 1.773 0 0 1-1.773-1.772v-6.634c0-.979.794-1.773 1.773-1.773h11.135c.979 0 1.772.794 1.772 1.773v6.634c0 .978-.793 1.772-1.772 1.772M272.455 209.614H261.32a1.772 1.772 0 0 1-1.772-1.772v-6.633c0-.98.793-1.774 1.772-1.774h11.135c.979 0 1.773.794 1.773 1.774v6.633c0 .979-.794 1.772-1.773 1.772M293.662 209.614h-11.135a1.772 1.772 0 0 1-1.773-1.772v-6.633c0-.98.794-1.774 1.773-1.774h11.135c.979 0 1.773.794 1.773 1.774v6.633c0 .979-.794 1.772-1.773 1.772M272.455 225.978H261.32a1.772 1.772 0 0 1-1.772-1.773v-6.633c0-.98.793-1.774 1.772-1.774h11.135c.979 0 1.773.794 1.773 1.774v6.633c0 .979-.794 1.773-1.773 1.773M293.662 225.978h-11.135a1.773 1.773 0 0 1-1.773-1.773v-6.633c0-.98.794-1.774 1.773-1.774h11.135c.979 0 1.773.794 1.773 1.774v6.633c0 .979-.794 1.773-1.773 1.773"/>
        </g>
        <path fill="#FCA70C" d="M314.869 225.978h-11.135a1.773 1.773 0 0 1-1.773-1.773v-22.997c0-.98.794-1.773 1.773-1.773h11.135c.979 0 1.772.794 1.772 1.773v22.997c0 .979-.793 1.773-1.772 1.773" mask="url(#d)"/>
        <path fill="#F9C110" d="M302.998 225.242v-22.996c0-.98.794-1.774 1.773-1.774h11.135c.219 0 .426.045.618.118a1.767 1.767 0 0 0-1.655-1.155h-11.135c-.98 0-1.773.794-1.773 1.774v22.996c0 .76.48 1.404 1.154 1.656a1.764 1.764 0 0 1-.117-.62" mask="url(#d)"/>
        <path fill="#5851BC" d="M254.34 172.625l1.808 4.76h7.567s-.525 20.576-.559 24.433c-.032 3.858 3.174 30.467 3.174 30.467h4.382l-.457-33.549 6.216-17.212s4.674 23.043 6.612 26.898c1.94 3.855 12.352 23.863 12.352 23.863h4.02l-10.324-44.124-4.432-15.332-22.342-10.443-8.018.79" mask="url(#d)"/>
        <path fill="#FCA70C" d="M103.183 189.723l-3.527 36.544 34.657.007-3.352-36.613z" mask="url(#d)"/>
        <path fill="#5851BC" d="M110.525 192.384c-.486.002-.88.308-.88.682.002.375.397.679.882.679h.001c.486-.002.881-.308.88-.681-.002-.375-.397-.68-.88-.68h-.003zm-1.299.684v-.001c0-.605.581-1.1 1.298-1.102h.002c.716 0 1.3.492 1.3 1.098.001.605-.58 1.1-1.297 1.102-.718 0-1.3-.492-1.303-1.097zM123.44 192.356a.983.983 0 0 0-.695.268.58.58 0 0 0-.182.413c.002.374.397.678.88.678h.003c.243-.001.469-.077.638-.215a.607.607 0 0 0 .24-.466c-.002-.374-.396-.678-.88-.678h-.004zm-1.297.682h.21-.21c-.001-.26.108-.513.305-.711.245-.248.607-.39.99-.39h.007c.714 0 1.297.489 1.298 1.095 0 .302-.14.583-.394.792-.242.2-.562.309-.902.31h-.002c-.716 0-1.3-.491-1.302-1.096z" mask="url(#d)"/>
        <path fill="#5851BC" d="M116.603 201.054c.12 0 .243 0 .368-.006 2.374-.079 4.184-.844 5.38-2.272 1.98-2.365 1.531-5.662 1.512-5.8a.416.416 0 0 0-.475-.356.42.42 0 0 0-.356.474c.004.031.412 3.075-1.328 5.148-1.037 1.235-2.639 1.897-4.761 1.967-2.055.062-3.587-.472-4.607-1.607-1.85-2.06-1.394-5.444-1.389-5.479a.42.42 0 0 0-.832-.119c-.022.154-.517 3.8 1.593 6.154 1.129 1.26 2.774 1.896 4.895 1.896" mask="url(#d)"/>
        <path fill="#5045AF" d="M69.11 107.368c1.342 2.316.184 5.482 1.537 7.79.54.924 1.459 1.65 1.719 2.69a2.404 2.404 0 0 1-.828 2.416 2.403 2.403 0 0 1-2.544.226c-.172-.091-.335-.204-.522-.26-.67-.195-1.274.4-1.85.792-.704.483-1.624.703-2.435.431-1.04-.347-1.681-1.395-2.028-2.434-.968-2.907-.28-6.089.614-9.019.447-1.463 1.108-3.088 2.542-3.618" mask="url(#d)"/>
        <path fill="#FFB9B0" d="M100.264 132.01c.021.322.513.6.186 1.277-.728 1.512-2.998 3.608-5.71 2.644-.12.042-14.994 8.64-16.139 8.64-1.147 0-8.952-7.387-11.506-16.527-.609-2.18-.372-4.746 1.672-5.849 0 0 1.702.412 2.81 2.5 1.69 3.191 6.753 13.761 7.875 14.161 1.4-.933 8.21-2.956 13.727-5.3 1.23-.536 1.7-.988 2.138-1.786.413-.81 1.428-2.69 2.291-3.573.296-.302 3.56-2.05 3.56-1.477 0 .333-.959 1.212-2.208 2.004-.64.406-.937 1.158-1.062 1.478-.212.421 2.34-.35 2.552.532.036.127-.198 1.108-.186 1.276" mask="url(#d)"/>
        <path fill="#7762EF" d="M68.171 121.925a6.698 6.698 0 0 1 4.442 3.445c.235.448.42.918.605 1.39.792 2.014 1.883 3.838 2.675 5.853-1.083.875-2.394 1.276-3.498 1.687a7.45 7.45 0 0 1-3.257.437c-.187-.017-.377-.04-.548-.12-.23-.107-.404-.3-.57-.49a33.154 33.154 0 0 1-.99-1.19c-.275-.347-.549-.71-.665-1.139-.156-.58 0-1.193.157-1.772" mask="url(#d)"/>
        <path fill="#7762EF" d="M70.118 127.43c-.073-.086-.15-.176-.255-.217-.198-.078-.43.053-.535.238-.105.185-.113.408-.11.621a8.41 8.41 0 0 0 .379 2.413l-.253 4.251.005.008a7.46 7.46 0 0 0 3.046-.444c.459-.17.956-.348 1.455-.55-.51-2.396-2.143-4.424-3.732-6.32" mask="url(#d)"/>
        <path fill="#FFB9B0" d="M63.526 117.704s-.058 2.663.352 2.837c.81.344 1.719.53 1.719.53l.028 5.51-7.344-1.108-5.052-2.811s5.25-1.742 5.297-2.266c.046-.522-.29-3.468-.29-3.468M52.243 197.409l-.004.02c-2.01 9.527-1.053 22.614-1.5 29.785.106.029 2.73.357 2.73.357s6.213-30.226 7.34-36.016a8.03 8.03 0 0 0 .145-1.121c.27-4.355-3.654-4.577-5.867-.976-.365.59-.706 1.24-1.012 1.943-.125.285-.241.572-.361.88l-.002.01a28.068 28.068 0 0 0-.975 3.04l-.023.11c-.092.306-.167.615-.242.924l-.014.07c-.077.32-.145.642-.215.974" mask="url(#d)"/>
        <path fill="#FFB9B0" d="M64.007 163.218c-.073.788-.494 4.54-.998 8.964-.432 3.72-.904 7.912-1.272 11.233-.273 2.49-.473 4.476-.557 5.411a11.97 11.97 0 0 1-.22 1.61v.02c-.946 4.35-3.952 4.602-5.78 3.593a3.685 3.685 0 0 1-.694-.473c-.419-.378-.704-.84-.777-1.282v-.01a67.296 67.296 0 0 1-.337-3.562v-.022c-.01-.01-.01-.01-.01-.02l-.01-.032c-.22-2.826-.41-6.462-.578-10.004-.2-4.35-.327-8.543-.358-10.907-.01-.137-.01-.263-.02-.389-.033-7.25 6.63-11.896 10.77-9.647a.852.852 0 0 1 .148.074c.062.042.115.073.157.094.473.316.631 1.398.641 2.638.021.903-.043 1.892-.105 2.711" mask="url(#d)"/>
        <path fill="#FFB9B0" d="M53.869 190.577l-.507-1.898c-.002.008-.002.008.005.022.01.429.06 3.489-.63 6.63l-.023.11c-.073.3-.15.62-.241.923l-.015.071c-.144.504-.21.815-.215.974l-.004.02c-.006.862 1.828-2.962 2.248-3.858.052-.113.084-.178.084-.178l-.496-1.993-.206-.823zM68.222 199.228v.02c-.19 9.976 2.89 21.704 3.704 28.948.1.004 2.517-.322 2.517-.322s.46-30.558.492-36.595c0-.422-.018-.813-.06-1.151-.497-4.4-4.065-3.646-5.445.485-.229.678-.425 1.41-.58 2.184a30.1 30.1 0 0 0-.176.965v.01a32.605 32.605 0 0 0-.36 3.267l-.003.116c-.03.325-.045.652-.06.978l-.002.074c-.014.336-.02.673-.027 1.02" mask="url(#d)"/>
        <path fill="#FFB9B0" d="M70.294 195.16a2.641 2.641 0 0 1-.7-.305c-.45-.272-.787-.651-.918-1.08l.001-.012c-.262-.858-.573-2.059-.92-3.475-.008-.013-.008-.013-.007-.024l-.015-.035c-.673-2.752-1.47-6.32-2.216-9.796-.915-4.274-1.746-8.417-2.172-10.767a157.05 157.05 0 0 1-.427-1.965c-1.278-7.286 4.405-12.034 8.535-10.644.06.018.11.037.161.054.83.334 1.062 3.255 1.248 5.228.187 1.974 1.591 22.434 1.941 26.133.056.585.081 1.135.073 1.657-.1 4.575-2.765 5.577-4.584 5.032" mask="url(#d)"/>
        <path fill="#FFB9B0" d="M68.525 192.029l-.778-1.763c0 .01 0 .01.008.022.083.424.647 3.455.559 6.75l-.003.117c-.014.315-.028.652-.06.978l-.001.074c-.043.536-.05.863-.028 1.02l-.001.023c.142.857 1.143-3.401 1.368-4.395l.046-.2-.785-1.857-.325-.77z" mask="url(#d)"/>
        <path fill="#5146AF" d="M55.864 149.222s-5.35 6.794-4.8 13.62c.23 2.841.58 5.345.905 8.204.047.412.688 6.415.507 6.421 0 0 11.02 3.405 21.666-1.056 0-.727.852-14.7-4.9-28.021-6.941.98-13.378.832-13.378.832" mask="url(#d)"/>
        <path fill="#7762EF" d="M72.612 133.536c-.042 1.946-1.078 3.131-2.563 4.772-.188.292-.65 4.63-.806 7.513-.082 1.502.558 2.445 0 2.569-2.138 1.865-9.843 3.375-13.376.83.37-3.137-1.035-10.048-1.984-13.563a26.235 26.235 0 0 0-.395-1.35c-.883-2.667-2.478-11.227-1.298-11.6.235-.075.6-.171 1.024-.298 1.847-.559 4.576-1.515 4.576-1.515s1.6 4.736 5.763 5.308c2.272-.936 2.072-3.81 2.044-5.13.744.206 1.07.41 3.373 1.091.646.931.089 2.874 1.132 5.769.259.72 2.56 3.235 2.51 5.604" mask="url(#d)"/>
        <path fill="#FFB9B0" d="M68.84 106.833s.42 5.146-.458 7.842c-.65 1.997-3.319 3.861-5.55 3.837-6.144 0-7.246-8.346-7.215-8.749.033-.405 9.062-3.908 9.062-3.908l4.161.978z" mask="url(#d)"/>
        <path fill="#5045AF" d="M80.539 231.083c-2.187.394-4.524-.22-5.482-.055-.791.135-2.826.651-3.587-.033-.762-.684-.64-3.1.236-3.42 0 0 .203.076.568.136.546.083 1.454.123 2.588-.212 1.665.685 1.727.983 3.618 1.365.824.17 1.78.444 2.41.732.816.374.88 1.266-.351 1.487M56.932 232.046c-2.19-.369-3.579-1.58-4.537-1.748-.79-.14-2.783-.528-2.992-1.346-.156-.607.446-3.132 1.38-3.138 0 0 .163.14.487.32.485.263 1.327.606 2.508.676 1.335 1.206 1.292 1.507 2.943 2.507.718.436 1.525 1.017 2.021 1.502.642.627-.576 1.436-1.81 1.227" mask="url(#d)"/>
        <path fill="#FFB9B0" d="M25 129.866l2.012-2.395 12.276 10.978s5.995-7.98 7.644-10.47c1.811-2.74 3.445-5.081 6.096-5.54.611.377-.206 10.216-.524 10.454-3.703 2.77-10.91 11.709-13.203 12.173-2.648.536-14.3-15.2-14.3-15.2" mask="url(#d)"/>
        <path fill="#7762EF" d="M53.936 122.004s-2.508.031-3.587.92c-1.078.888-6.23 9.054-6.23 9.054s-.132 1.544 1.355 2.837c1.591 1.383 3.71 1.606 3.71 1.606s2.587-2.574 4.045-3.745c.908-.73.998 1.076.998 1.076l4.56-4.45-4.851-7.298z" mask="url(#d)"/>
        <path fill="#5045AF" d="M52.42 122.103a9.099 9.099 0 0 1-.4-.23c-.704-.42-1.352-.862-1.648-1.662-.428-1.152-.632-2.921-.034-4.04.404-.756 1.165-1.252 1.686-1.933.72-.943.933-2.175.993-3.36.06-1.184-.009-2.384.24-3.544.425-1.983.99-3.871 2.517-5.148 2.447-2.045 7.353-3.258 10.02-.976.485.415.58.747 1.235.81.88.087 1.45.199 2.24.655.875.506 1.936 1.22 1.813 2.368-.085.795-.989 2.054-1.669 2.429-.285.157-.618.205-.943.212-1.039.02-1.903-.657-2.923-.547a1.938 1.938 0 0 0-1.28.71c-.368.454-.319 1.087-.748 1.51-.689.683-1.756.625-2.573 1.067-.135.075-.273.158-.35.29-.077.13-.085.287-.09.438l-.048 1.289c-.405-.178-.447-.755-.78-1.045-.322-.28-.848-.202-1.17.076-.324.278-.48.703-.566 1.12-.102.503.075 1.035.23 1.54.266.876 1.017 1.665 1.622 1.086.44.648-.04 1.727-.057 2.459-.012.58-.002 1.73.54 2.11.5.35 1.29.086 1.32.988.027.827-.799 1.473-1.62 1.573-.82.102-1.632-.187-2.424-.423-.793-.235-1.66-.418-2.43-.12-.469.183-.872.533-1.366.615-.463.078-.914-.092-1.337-.317" mask="url(#d)"/>
        <path fill="#FFB9B0" d="M30.114 130.261s-2.885-2.313-3.082-2.947c-.197-.633-.24-1.31-.478-1.93-.346-.903-1.106-1.624-2.002-1.992-.722-.297-.368-.543-1.143-.393-1.17.226-1.724 1.372-2.191 2.268-1.993 3.82 3.464 4.543 3.657 4.551.398.015 2.428 2.318 2.428 2.318" mask="url(#d)"/>
        <path fill="#8484EF" d="M21 128.417l1.977 1.318a.543.543 0 0 0 .768-.173l4.342-7.274-2.573-1.449-4.66 6.818a.544.544 0 0 0 .146.76" mask="url(#d)"/>
        <path fill="#C4C4F7" d="M13.94 112.98l.68.465 2.752-4.008-.681-.464c-.968-.66-2.367-.297-3.127.81-.76 1.107-.591 2.539.377 3.198" mask="url(#d)"/>
        <path fill="#C4C4F7" d="M11.426 117.867l12.65 1.92 2.89-4.211-6.385-11.052z" mask="url(#d)"/>
        <path fill="#BBBBF2" d="M12.235 118.041l11.84 1.745 1.152-1.678-9.966-4.478z" mask="url(#d)"/>
        <path fill="#C4C4F7" d="M29.279 122.849c.677.461 1.655.207 2.187-.566l.513-.749c.53-.774.413-1.775-.263-2.237-.677-.461-1.656-.207-2.187.567l-.514.749c-.531.773-.413 1.774.264 2.236" mask="url(#d)"/>
        <path fill="#BBBBF2" d="M29.529 119.865l-.513.747c-.532.776-.413 1.775.264 2.236.677.46 1.654.21 2.186-.566l.514-.747c.038-.057.074-.116.105-.176-.546.645-1.433.83-2.06.403-.626-.427-.773-1.318-.37-2.058-.044.05-.087.104-.126.16" mask="url(#d)"/>
        <path fill="#A4A4F7" d="M11.014 118.282c.397.27.972.122 1.284-.333l8.677-12.645c.312-.455.243-1.043-.154-1.313-.398-.271-.973-.122-1.285.333l-8.677 12.645c-.312.454-.242 1.042.155 1.313" mask="url(#d)"/>
        <path fill="#8484EF" d="M21.043 104.232l-7.227 10.53c-.312.455-.886.604-1.285.333a.747.747 0 0 1-.22-.241l-1.453 2.114c-.31.454-.242 1.043.156 1.314.398.27.972.122 1.285-.333l8.677-12.645c.239-.347.25-.77.067-1.072" mask="url(#d)"/>
        <path fill="#A4A4F7" d="M25.194 122l.818.56c1.209.822 2.956.37 3.905-1.013l.813-1.185c.948-1.382.738-3.17-.471-3.993l-.818-.558c-1.208-.824-2.956-.37-3.904 1.011l-.814 1.185c-.948 1.382-.738 3.17.47 3.993" mask="url(#d)"/>
        <path fill="#8484EF" d="M24.768 117.943l-1.219 1.775c-.299.437-.234 1.002.15 1.264l3.808 2.596c.382.26.937.117 1.237-.32l1.217-1.775c-.299.437-.854.58-1.236.32l-3.809-2.595c-.382-.262-.448-.828-.148-1.265" mask="url(#d)"/>
        <path fill="#FFB9B0" d="M21.423 126.592c-.156-1.11.091-2.17.695-2.973a6.55 6.55 0 0 1 .71-.764c.12-.117.248-.236.427-.283.276-.072.625.043.924.21.323.18.632.442.76.753.21.518-.15.95-.558 1.207-.042.028-.087.055-.102.102-.023.07.026.157.07.235.184.324.332.674.293.988a.577.577 0 0 1-.678.507c-.15-.023-.349-.082-.398.032-.016.038-.008.085-.002.13a1.06 1.06 0 0 1-.23.833c-.047.053-.103.104-.184.115a.486.486 0 0 1-.192-.027 2.69 2.69 0 0 1-.676-.299" mask="url(#d)"/>
        <path fill="#FFB9B0" d="M27.012 127.471c-.069-.425-.22-1.12-.235-1.55-.043-1.166-.66-2.32-1.669-2.904-.083-.048-.177-.094-.272-.077-.12.02-.203.14-.22.26a.798.798 0 0 0 .052.357c.117.367.638 1.057.477 1.435-.24.564-.433 1.178-.412 1.798.018.55.275 1.441.925 1.531" mask="url(#d)"/>
        <path stroke="#C4C4F7" stroke-linecap="round" stroke-linejoin="round" stroke-width=".75" d="M12.343 98.405l2.545 6M7.029 103.741l5.216 3.909M3.664 111.01l6.488.637" mask="url(#d)"/>
        <path fill="#FFB9B0" d="M211.49 47.864s-2.33-1.644-2.413-2.334c-.083-.691-1.707-3.488-2.227-4.045-.52-.558-3.251-1.504-3.833-1.587-.583-.083-3.926.2-3.51.657.417.456 2.58.289 2.996.539l.416.249s-.416.565-.25.908c.167.342-.714.866-.381 1.449.333.583-.135.542.163 1.15.492 1.004 1.75 1.563 2.084 1.288.25.595 1.205 1.807 2.1 1.723.895-.083 3.07 1.956 3.07 1.956M247.016 36.167c.08 1.564-.032 4.29.416 4.693.447.405 1.894.342 1.894.342s-5.17 6.537-5.633 6.178c-.462-.359-6.576-5.343-5.202-5.6 1.374-.257 2.718-.202 2.68-.913l-.118-2.134" mask="url(#d)"/>
        <path fill="#FCA70C" d="M252.912 71.079s-10.087 1.146-12.41 1.193c-2.321.047-2.206-1.166-2.206-1.166-.117-2.555-.551-8.58-1.031-10.62-.45-1.905-.648-2.61-1.04-4.42-.867-4.026-.828-4.794-1.747-9.763l6.025-4.842s.624 1.852 3.149 1.886c3.376.042 4.426-2.324 4.426-2.324l8.218 5.456.77 13.273-.982 10.93" mask="url(#d)"/>
        <path fill="#FFB9B0" d="M247.13 34.75c-.184.787-.42 1.562-.712 2.318-.532 1.384-1.318 1.882-2.783 1.916-1.029.026-2.059.05-3.088.075-.79.018-1.775.044-2.413-.51-.633-.55-.647-1.476-.786-2.237a43.464 43.464 0 0 1-.71-8.75 4.22 4.22 0 0 1 .068-.795.573.573 0 0 1 .133-.292c.095-.095.237-.122.37-.143a31.62 31.62 0 0 1 5.84-.374c1.378.04 2.84.2 3.931 1.044 1.098.85 1.62 2.228 2.09 3.536.075.21.13.49-.05.618" mask="url(#d)"/>
        <path fill="#ED9C80" d="M224.505 107.06s.334 2.006.601 2.692c.267.686 2.518.053 2.667-.39.148-.444-.709-3.705-.709-3.705" mask="url(#d)"/>
        <path fill="#38287C" d="M228.556 109.93c.194.74.44 2.158.44 2.158l-2.25.98-.369-.347s-.557.676-1.247.995c-.512.237-1.617.543-2.178.604-1.963.212-3.409-.158-3.525-.43-.487-1.138 2.118-1.442 2.635-1.578 1.485-.392 2.31-1.652 2.47-2.474.113-.596-.035-.7.298-.682 0 0 .292-.015.564.264.415.428 1.041.624 1.598.371.318-.144.62-.355.797-.664 0 0 .572.062.767.802" mask="url(#d)"/>
        <path fill="#453087" d="M234.447 80.836c-3.517.691-7.931.741-11.484.272.497 1.424 1.714 3.25 2.179 5.255 1.533 6.624 2.065 15.522 2.453 21.027 0 0-.736 1.412-3.093.337-3.523-8.7-9.672-26.33-9.615-30.155.073-4.869 12.226-6.045 21.132-7.245" mask="url(#d)"/>
        <path fill="#38287C" d="M249.972 71.087c2.8 2.046-15.525 9.75-15.525 9.75a30.45 30.45 0 0 1-6.007.572c-.189-.363-.365-.735-.447-1.136-.107-.532-.05-1.085-.143-1.62-.18-1.04-.928-1.92-1.83-2.467-.903-.548-1.952-.803-2.995-.97-2.478-.4-6.804-.12-6.804-.12 5.507-4.06 16.777-4.592 22.025-4.926 1.006 1.656 11.324.624 11.726.917" mask="url(#d)"/>
        <path fill="#ED9C80" d="M230.314 111.69s-.02 2.034.125 2.755c.145.723 2.47.489 2.693.079.224-.411-.054-3.772-.054-3.772" mask="url(#d)"/>
        <path fill="#38287C" d="M233.806 115.217c.063.763.06 2.203.06 2.203l-2.386.575-.304-.405s-.666.57-1.4.764c-.546.143-1.687.255-2.25.217-1.97-.132-3.329-.747-3.398-1.035-.282-1.205 2.336-1.053 2.87-1.097 1.53-.128 2.561-1.227 2.86-2.008.216-.568.088-.696.413-.62 0 0 .29.035.51.357.334.494.916.795 1.508.643.338-.087.672-.243.901-.516 0 0 .553.16.616.922" mask="url(#d)"/>
        <path fill="#453087" d="M256.084 70.682s-5.606.556-12.416.396c-1.585 0-13.578 2.25-14.726 4.283-1.886 3.342 1.231 22.88.944 36.867 0 0 1.436 1.2 3.98.072.631-6.872 4.691-23.08 1.891-30.648 6.612.878 11.945 1.75 17.956-.242 1.406-.466 2.458-1.46 3.092-3.279.633-1.826.303-5.816-.721-7.449" mask="url(#d)"/>
        <path fill="#FCA70C" d="M240.502 41.46s-1.44.08-1.722.102c-1.202.095-2.424.253-3.56.674-1.636.605-2.789 2.124-4.119 3.314-1.28 1.144-7.918 7.47-9.157 7.703-1.238.232-12.106-7.216-12.106-7.216l-2.654 2.653s11.794 10.9 15.31 10.916c1.707.01 11.121-4.946 14.134-6.873l3.874-11.273z" mask="url(#d)"/>
        <path fill="#CE4A30" d="M222.522 57.515c-2.424.137-13.534-8.349-14.823-9.339l-.515.515s11.794 10.897 15.311 10.916c1.423.008 8.194-3.432 12.155-5.694l1.025-.594-.615-3.664s-9.964 7.714-12.538 7.86" mask="url(#d)"/>
        <path fill="#A4A4F7" d="M211.206 72.863h26.996l-4.841-15.78a2.075 2.075 0 0 0-1.983-1.467h-23.642c-.905 0-1.551.876-1.287 1.74l4.757 15.507z" mask="url(#d)"/>
        <path fill="#7A74D1" d="M210.867 72.863h26.589l-4.84-15.78a2.076 2.076 0 0 0-1.983-1.467H206.99c-.904 0-1.552.876-1.286 1.74l4.637 15.118a.549.549 0 0 0 .526.389" mask="url(#d)"/>
        <path fill="#CE4A30" d="M252.377 49.067c-1.343 6.075-1.58 10.829-1.96 15.173-4.718 1.83-6.639 4.556-11.254 6.61 0 0-3.645-.604-4.028.77-.22.794 4.266 1.425 4.266 1.425 4.28.02 15.561-3.107 16.325-3.316.763-.21 2.986-14.551 3.075-22.334.013-1.105-.027-2.306-.718-3.168-.363-.453-.874-.764-1.392-1.03-3.01-1.538-5.24-1.958-8.614-2.173" mask="url(#d)"/>
        <path fill="#FFB9B0" d="M239.8 71.791c-.508-.639-1.432-.73-2.247-.71-.604.014-1.205.062-1.804.143-.272.037-.585.1-.614.396-.029.295 1.322 0 2.03.204a35.669 35.669 0 0 1-4.174.113c-.162-.004-.33-.009-.48.05-.15.06-.28.204-.27.366.007.126.096.233.19.318.39.35.921.488 1.436.578 2.13.372 4.367.31 6.345-.56" mask="url(#d)"/>
        <path fill="#FCA70C" d="M252.084 48.953c-.11 6.493-.572 9.465-.445 15.96-3.26.696-7.774 4.388-12.389 6.442 0 0-.274.916.151 1.69.353.129 15.572-3.576 16.782-4.692 1.09-1.003 2.53-13.174 2.618-20.958.014-1.106-.026-2.306-.717-3.169-.363-.453-.875-.764-1.392-1.029-3.01-1.539-5.24-1.959-8.615-2.174" mask="url(#d)"/>
        <path stroke="#A4A4F7" d="M224.59 64.511c.096 1.384-1.539 2.506-3.653 2.506-2.115 0-3.907-1.122-4.003-2.506-.097-1.384 1.538-2.506 3.652-2.506s3.906 1.122 4.003 2.506z" mask="url(#d)"/>
        <path fill="#A4A4F7" d="M223.192 64.511c.062.771-.977 1.395-2.32 1.395-1.341 0-2.48-.624-2.54-1.395-.062-.77.976-1.395 2.318-1.395 1.343 0 2.48.624 2.542 1.395" mask="url(#d)"/>
        <path fill="#483A99" d="M241.93 32.116c-.113.753-.389 1.115-1.14 1.205-1.064.128-1.268-.292-1.426-.8-.158-.507-.21-.93-.199-1.046.034-.317.256-.36.926-.487.671-.127 1.566-.282 1.697-.142.133.14.241.614.142 1.27m-3.896.573c-.027.53-.29 1.016-.88 1.089-.548.069-.8-.222-1.096-.924-.258-.61-.27-1.096-.178-1.264.094-.17.39-.163 1.07-.206.68-.043.907-.058 1.018.242.04.11.093.533.066 1.063m4.34-2.092c-.05-.242-.59-.291-1.13-.222-.543.068-1.986.25-2.283.48-.297.232-.279.399-.437.415-.156.018-.167-.144-.512-.295-.345-.15-1.178-.046-1.72.023-.54.067-1.055.187-1.045.435.011.248.107.679.217.748.111.07.111.057.536 1.037.24.546.604.86 1.304.708.891-.194.947-1.21 1.017-1.633.068-.424.132-.487.267-.504.14-.02.23.026.401.42.171.393.295 1.302 1.21 1.353 1.194.067 1.711-.342 1.877-1.11.224-1.037.173-1.041.263-1.135.041-.044.894.075.894.075l-.02-.31s-.826-.423-.839-.485" mask="url(#d)"/>
        <path fill="#483A99" d="M249.591 28.938a11.69 11.69 0 0 0-.297-1.601c-.365-1.395-1.218-2.578-2.494-3.268-1.628-.881-3.86-1.062-5.644-.563-1.033.289-1.416.833-1.948.818-.407-.012-.917-.286-1.444-.476-4.038-1.45-3.36 2.5-2.93 3.587.19.48 1.106.829 1.228 1.028.122.2.108 1.178.185 1.609.077.429.503.594.503.594s.023-1.272.043-1.445c.053-.454.202-.924.596-1.191.412-.28.974-.324 1.452-.408.498-.087 2.816.358 2.972.492.754.646.948 2.123 1.16 2.99.097.405.2.678.365.672.126-1.195.54-1.226 1.255-.817.382.218.595.974.608 1.616.015.759-.409 1.594-1.205 1.764-.285.06.575 1.69.973 2.098.132.134.261.273.422.369.15.089.318.135.486.18l.576.157c.26.07.534.142.793.068.426-.12.651-.572.843-.97.315-.655.68-1.288.937-1.968.607-1.601.772-3.543.565-5.335" mask="url(#d)"/>
        <path fill="#D5D2FF" d="M322.334 88.768h-51.098l6.12-4.527V62.14a3.34 3.34 0 0 1 3.339-3.34h41.64a3.34 3.34 0 0 1 3.339 3.34v23.289a3.34 3.34 0 0 1-3.34 3.339" mask="url(#d)"/>
        <path fill="#FFF" d="M297.882 65.346h23.352v-2.234h-23.352zM297.882 68.684h23.352V66.45h-23.352zM297.882 72.023h23.352v-2.235h-23.352zM297.882 75.275h23.352v-2.234h-23.352zM297.882 79.165h16.285v-2.234h-16.285z" mask="url(#d)"/>
        <path fill="#A9ADFF" d="M292.663 80.264h-7.898a3.385 3.385 0 0 1-3.386-3.386V66.497a3.385 3.385 0 0 1 3.386-3.385h7.898a3.385 3.385 0 0 1 3.385 3.385v10.381a3.386 3.386 0 0 1-3.385 3.386" mask="url(#d)"/>
        <path fill="#FFF" d="M281.378 84.241h14.669V82.4h-14.669zM290.16 74.243h-5.323a.664.664 0 0 1-.641-.49l-1.023-3.781a.664.664 0 0 1 .64-.838h7.37c.439 0 .756.416.642.838l-1.023 3.78a.665.665 0 0 1-.642.49" mask="url(#d)"/>
        <path fill="#FFF" d="M291.098 75.093h-6.412a.133.133 0 0 1 0-.265h6.311l2.232-7.78a.13.13 0 0 1 .127-.096h1.394a.133.133 0 0 1 0 .265h-1.295l-2.23 7.78a.133.133 0 0 1-.127.096M285.668 76.136a.776.776 0 1 1-1.55-.001.776.776 0 0 1 1.55.001M291.305 76.136a.775.775 0 1 1-1.55 0 .775.775 0 0 1 1.55 0" mask="url(#d)"/>
        <path fill="#D5D2FF" d="M132.51 57.904h65.104l-7.797-5.77V16.518a4.255 4.255 0 0 0-4.254-4.254H132.51a4.254 4.254 0 0 0-4.254 4.254V53.65a4.254 4.254 0 0 0 4.254 4.254" mask="url(#d)"/>
        <g fill="#FFF" mask="url(#d)">
            <path d="M133.913 21.714h29.753v-2.847h-29.753zM133.913 25.967h29.753V23.12h-29.753zM133.913 30.22h29.753v-2.847h-29.753zM133.913 34.365h29.753v-2.848h-29.753zM133.913 38.508h29.753v-2.847h-29.753zM133.913 46.038h29.753v-2.847h-29.753zM133.913 50.522h50.779v-2.847h-50.779z"/>
        </g>
        <path fill="#C4C4F7" d="M170.315 40.72h10.063a4.314 4.314 0 0 0 4.314-4.312V23.181a4.314 4.314 0 0 0-4.314-4.314h-10.063a4.312 4.312 0 0 0-4.312 4.314v13.227a4.312 4.312 0 0 0 4.312 4.312" mask="url(#d)"/>
        <path fill="#FFF" d="M166.002 45.787h18.689v-2.346h-18.689zM173.503 33.05h6.782a.848.848 0 0 0 .817-.626l1.304-4.817a.846.846 0 0 0-.816-1.068h-9.392a.846.846 0 0 0-.816 1.068l1.305 4.817a.846.846 0 0 0 .816.625" mask="url(#d)"/>
        <path fill="#FFF" d="M172.31 34.133h8.167a.169.169 0 0 0 0-.337h-8.04l-2.844-9.913a.167.167 0 0 0-.16-.122h-1.778a.168.168 0 1 0 0 .337h1.65l2.842 9.913c.02.072.087.122.162.122M179.226 35.461a.987.987 0 1 0 1.975 0 .987.987 0 0 0-1.975 0M172.044 35.461a.987.987 0 1 0 1.975 0 .987.987 0 0 0-1.975 0" mask="url(#d)"/>
        <path fill="#EAE6FF" d="M311.774 242.37c0 1.672-12.846 3.024-28.69 3.024-15.845 0-28.69-1.352-28.69-3.024 0-1.67 12.845-3.024 28.69-3.024 15.844 0 28.69 1.355 28.69 3.024" mask="url(#d)"/>
        <path fill="#9AA3F4" d="M267.686 238.078c-.241.47-1.395 1.553-2.993 2.268-1.598.713-4.986 1.048-3.104 1.678 1.882.627 4.076.246 5.188.07 1.11-.18 2.187-.203 3.499-.212 1.729-.012 1.742-.118 1.51-2.069-.322-2.681-3.322-3.25-4.1-1.734M299.01 237.105c-.098.542.67 2.182-.704 3.386-1.373 1.202-4.495 2.47-2.427 2.518 2.07.048 4.053-.432 5.107-.951 1.051-.52.212-1.338 1.517-1.75 1.72-.543 1.364-1.807.471-2.59-1.145-2.574-3.656-2.363-3.965-.613" mask="url(#d)"/>
        <path fill="#4A41A3" d="M292.42 182.495s4.12-12.112-7.569-22.091c0 0-6.265 2.494-11.282 2.796-3.95.236-5.956-.127-5.956-.127s-.332 10.76-.345 16.56l25.151 2.862zM266.32 202.615c-.226-5.416 5.647-4.706 7.813-.66 4.477 8.366-1.652 27.634-2.462 36.764-.842.326-2.253.58-3.1.193-.584-.267-.901-.996-.901-.996.13-11.2-1.107-29.511-1.35-35.301" mask="url(#d)"/>
        <path fill="#4A41A3" d="M273.93 203.435c-.676 2.21-8.173 4.537-7.565-3.512.27-3.57.988-23.285 1.126-25.184.14-1.902.456-4.678 1.375-5.025 4.593-1.733 12.716 4.272 11.507 11.408-.805 4.77-5.044 17.727-6.444 22.313M285.726 206.508c-1.812-5.108 4.075-6.012 7.415-2.864 7.82 7.37 8.123 24.736 10.04 33.7-1.088.744-2.815 1.011-3.419.977-.64-.034-.932-.476-.932-.476-3.178-10.74-11.166-25.874-13.104-31.337" mask="url(#d)"/>
        <path fill="#4A41A3" d="M293.46 204.842c.204 2.303-6.043 7.062-8.503-.626-1.092-3.409-5.762-23.56-6.347-25.373-.584-1.814-.425-5.557.296-6.223 3.606-3.332 11.745-.402 13.305 6.665 1.044 4.725.825 20.78 1.248 25.557" mask="url(#d)"/>
        <path fill="#F2A181" d="M261.279 116.618c.213-.224.426-.45.616-.692 1.48-1.895 1.697-3.576 3.07-5.773.197-.317.472-1.154.997-1.907.547-.788 1.879-1.645 2.225-1.825.642-.337.09 1.076.09 1.076s.545-.788 1.07-.733c.206.023.242 1.228.245 1.434a10.11 10.11 0 0 1-1.125 4.784c-.178.344-.381.698-.382 1.087.488-.01.897-.347 1.293-.636.394-.289.888-.553 1.35-.395a3.467 3.467 0 0 1-.26.565c-.585 1.099-1.241 2.268-2.365 2.8-.672.32-1.45.375-2.105.725-1.185.63-1.761 2.09-2.964 2.683" mask="url(#d)"/>
        <path fill="#5E5DBB" d="M268.313 117.043l-3.53-1.477a.646.646 0 0 1-.347-.845l3.138-7.503a.646.646 0 0 1 .845-.347l3.531 1.478a.644.644 0 0 1 .346.844l-3.137 7.503a.647.647 0 0 1-.846.347" mask="url(#d)"/>
        <path fill="#B4B4DB" d="M268.851 116.72l-3.959-1.656 3.246-7.762 3.96 1.656z" mask="url(#d)"/>
        <path fill="#7A74D1" d="M272.097 124.28s-3.023.156-5.72.967c-4.07 1.22-5.47 3.106-6.877 3.886 2.732-3.471 5.776-10.83 5.776-10.83s-3.67-3.015-4.093-2.301c-.423.714-15.834 18.747-15.35 21.667.2 1.204 1.983 2.393 3.56 2.34 4.37-.15 9.443-1.74 14.764-3.481 2.338-.766 3.06.884 3.06.884" mask="url(#d)"/>
        <path fill="#6960C4" d="M259.5 129.132s-1.94 3.912-2.522 4.167c-.584.255 1.414-.814 2.507-1.944 1.091-1.129 2.589-4.092 2.589-4.092-.575.236-2.574 1.87-2.574 1.87" mask="url(#d)"/>
        <path fill="#F2A181" d="M265.59 110.177c.188.134.238.388.273.616.134.866.263 1.784-.074 2.594-.219.524-.616.955-1.044 1.328a8.137 8.137 0 0 1-1.589 1.086" mask="url(#d)"/>
        <path fill="#170D54" d="M272.19 103.668c-1.028.297-1.572 1.627-1.922 2.536-.421 1.095-.632 2.26-.77 3.421-.096.81-.154 1.66.168 2.407.165.382.42.717.67 1.047.145.187.292.377.486.51.195.132.45.2.67.114.32-.123.45-.5.54-.832.595-2.16 1.243-4.346 2.463-6.225" mask="url(#d)"/>
        <path fill="#F2A181" d="M271.05 110.511c-.022-.687-.746-1.137-1.373-.424-.52.59-.657 1.71-.687 2.536-.036.991.733 1.186 1.365 1.325" mask="url(#d)"/>
        <path fill="#7A74D1" d="M264.172 127.831c1.271-1.457 5.304-3.859 10.693-3.689 3.713.117 13.827.73 14.956 3.214.58 1.27 1.2 14.274.353 18.757-.637 3.372-2.264 11.724-2.264 13.74 0 2.015 1.083 2.88.578 3.465-1.13 1.311-8.87 1.862-12.503 1.862-3.233 0-8.737-.863-9.016-1.899-.414-1.537.632-1.48.773-3.092.142-1.61.55-12.075-.044-13.788-1.07-3.09-1.59-8.132-2.44-10.42-.647-1.735-2.356-6.693-1.086-8.15" mask="url(#d)"/>
        <path fill="#6960C4" d="M287.332 138.351c.385.802 3.002 5.011 3.002 5.011l.106.503c-.065.872-.151 1.64-.265 2.249-.637 3.372-2.264 11.723-2.264 13.739s1.036 2.843.577 3.466c-.892 1.209-15.483 3.928-14.764.552.065-.306 12.245-9.6 12.31-9.912.563-2.667 1.052-4.588 1.298-6.533.593-4.681-.387-9.877 0-9.075" mask="url(#d)"/>
        <path fill="#FFBE9D" d="M271.93 119.49s-.035 4.23-.206 4.4c-.17.172-1.006.568-1.006.568s.596 3.676 1.517 3.403c.921-.273 7.005-3.346 7.005-3.346s-.864-.35-.864-.691c0-.342.82-6.994.82-6.994" mask="url(#d)"/>
        <path fill="#FFBE9D" d="M276.154 104.125c-.887.242-3.224-.24-3.868.726-.645.966-1.21 3.303-1.45 3.948-.482 1.283-.795 2.655-1.145 3.978-.456 1.724-1.207 4.882.48 6.325.484.414.7.551 1.3.66.799.144 1.594.308 2.393.451 1.237.223 2.608.481 3.838.082 1.64-.533 2.542-2.79 2.965-4.324l2.417-8.783-6.93-3.063z" mask="url(#d)"/>
        <path fill="#3B2E7A" d="M271.779 129.51s-.355 16.506-1.027 26.547l2.426 3.348 1.669-4.193s.704-12.109-1.58-25.587l-1.488-.115z" mask="url(#d)"/>
        <path fill="#3B2E7A" d="M271.22 128.06l.057.228c.107.429.276.84.502 1.222l1.49.115s1.012-.53 1.145-1.1c.135-.57-1.662-1.505-1.662-1.505l-.218.086a3.221 3.221 0 0 0-1.296.933l-.019.022z" mask="url(#d)"/>
        <path fill="#FFF" d="M278.481 122.794s.952.591 1.699 1.722c-.766 1.753-2.498 4.865-4.404 6.283-.892-2.39-3.024-3.779-3.024-3.779s5.196-.925 5.729-4.226M272.752 127.02s-1.858.737-2.962 2.815c0 0-.356-2.811.402-5.225 0 0 1.22-1.561 1.642-1.593-.174 1.989.918 4.003.918 4.003" mask="url(#d)"/>
        <path fill="#F2A181" d="M272.987 163.87c-1.845.279-2.527.964-3.566 1.99-.085.084-.175.19-.157.308.025.147.198.213.344.237.858.137.997-.41 1.798-.744.54-.227 1.078-.46 1.615-.695" mask="url(#d)"/>
        <path fill="#E9E6FF" d="M266.722 150.426l6.538 20.954c.176.563-.143 1.048-.692 1.052l-13.642 1.196c-.489.004-.987-.38-1.143-.88l-7.03-20.635c-.177-.563.635-1.367 1.184-1.372l13.641-1.196c.49-.004.987.38 1.144.881" mask="url(#d)"/>
        <path fill="#E0D9FF" d="M266.274 150.974l6.447 20.631c.176.562-.143 1.048-.692 1.052l-13.642 1.196c-.49.004-.987-.38-1.143-.881l-6.448-20.631c-.175-.562.145-1.048.694-1.052l13.64-1.197c.49-.003.988.38 1.144.882" mask="url(#d)"/>
        <path fill="#FFF" d="M255.376 150.304l.484 1.81 6.38-.565-.524-1.802z" mask="url(#d)"/>
        <path fill="#FFF" d="M257.26 148.581c-.155-.494.103-.93.574-.975.472-.044.98.323 1.134.817.154.495-.103.931-.574.975-.472.043-.98-.322-1.134-.817m-.675.042l.64 2.046 3.044-.282-.639-2.046c-.275-.882-1.18-1.533-2.02-1.456-.842.078-1.3.856-1.025 1.738" mask="url(#d)"/>
        <path fill="#FFBE9D" d="M278.184 162.408c-1.43.298-5.245 1.437-5.646 1.625-.478.226-2.058 1.424-2.43 1.798-1.437 1.439-.702 2.11-1.269 4.063a1.148 1.148 0 0 0-.034.31c0 .203.275.379.552.188.15.252.593.097.807-.177-.003.195.27.318.71.075.236-.131.194-.12.742-.61.391-.348.847-.626 1.551-.943.475-.215 1.08-.406 1.515-.692.58-.381 1.613-.472 2.123-2.126.112-.365.472-.591.796-.794l2.332-1.463" mask="url(#d)"/>
        <path fill="#7A74D1" d="M286.978 135.566c.607 2.163 3.132 17.159 3.132 17.159l-14.22 10.298 1.184 3.11s17.012-5.713 18.352-9.617c1.341-3.904 1.279-21.544-3.446-27.731-1.504-1.97-4.519-2.964-4.519-2.964" mask="url(#d)"/>
        <path fill="#F2A181" d="M272.395 167.806l-.356.327c-.221.196-.509.421-.737.725-.237.293-.476.594-.683.801-.203.21-.364.326-.364.326s.349-.694.868-1.281c.249-.306.607-.52.844-.669l.428-.229M271.612 166.865s-.194.15-.397.45a7.27 7.27 0 0 0-.354.505l-.188.29c-.066.108-.116.184-.16.304-.376.914-1.006 1.673-1.006 1.673s.08-.234.229-.567c.146-.335.359-.767.56-1.202.232-.468.566-.816.822-1.087a1.99 1.99 0 0 1 .494-.366M270.712 166.103s-.123.204-.344.482c-.104.143-.247.296-.363.472-.093.169-.182.407-.27.614-.176.432-.337.867-.462 1.196-.122.33-.212.552-.212.552s-.002-.241.062-.592c.06-.354.193-.816.396-1.248.105-.221.195-.423.344-.624.151-.177.296-.321.428-.441.266-.234.421-.411.421-.411" mask="url(#d)"/>
        <path fill="#3B2E7A" d="M281.573 114.449c-.557-.326-.984-.671-1.347-.137-.192.283-.31.674-.637.772-.327.096-.665-.198-.745-.53-.082-.33.02-.675.122-1.001l.67-2.161c.22-.706.438-1.481.158-2.165-.142-.344-.4-.631-.683-.874-.923-.792-2.126-1.175-3.317-1.42-1.192-.242-2.411-.367-3.572-.732-.487-.153-.97-.354-1.36-.685-.628-.533-.954-1.373-.963-2.198-.01-.825.275-1.635.697-2.344.088.284.207.557.357.814a3.04 3.04 0 0 1 .65-1.021c.348 1.936 8.495 1.289 10.399 2.142 1.318.592 2.41.978 2.37 3.116.038.14.152.243.258.34 1.169 1.075 1.675 2.38 1.822 4.32.18 2.374-1.202 4.944-2.557 6.9-.341.493-.53.842-1.006 1.204s-1.305.54-1.893.428c-.587-.113-1.745-.062-1.756-.66-.008-.428.906-1.192 1.16-1.537" mask="url(#d)"/>
        <path fill="#FFBE9D" d="M279.44 116.69s-.096.398.152.712c.218.274.66.234.965.136.865-.28 1.462-1.123 1.625-1.994.193-1.027-.36-2.054-1.3-1.787-.548.157-.891.78-.885 1.35" mask="url(#d)"/>
        <path fill="#F2A181" d="M271.933 119.853l2.613.48s-.872.977-2.647.977" mask="url(#d)"/>
        <g mask="url(#d)">
            <path fill="#3939D3" d="M66.75 75.044l3.502 1.763-1.75-4.296"/>
            <path fill="#3939D3" d="M55.887 69.552c0 3.857 3.313 6.984 7.4 6.984s7.4-3.127 7.4-6.984c0-3.856-3.313-6.983-7.4-6.983s-7.4 3.127-7.4 6.983"/>
            <path fill="#FEFEFE" d="M61.476 67.258v4.992c0 .404.436.654.784.453l4.323-2.496a.523.523 0 0 0 0-.906l-4.323-2.496a.523.523 0 0 0-.784.453"/>
        </g>
        <g mask="url(#d)">
            <path fill="#3939D3" d="M308.949 128.147l-3.502 1.762 1.75-4.295"/>
            <path fill="#3939D3" d="M319.812 122.655c0 3.856-3.313 6.983-7.4 6.983s-7.4-3.127-7.4-6.983c0-3.857 3.313-6.983 7.4-6.983s7.4 3.126 7.4 6.983"/>
            <path fill="#FEFEFE" d="M311.09 126c1.611.025 3.244.046 4.728-.05.468-.032.875-.735.304-.958.24-.116.484-.228.588-.482.1-.24-.02-.567-.285-.628.56.13.78-.707.344-.978.23-.185.423-.43.471-.714.05-.282-.074-.6-.34-.738-.175-.09-.383-.094-.582-.095l-2.01-.014c.18-.99.235-2.07-.299-2.94-.16-.26-.592-.576-.935-.375-.32.19-.232.66-.215.956.067 1.232-.676 2.471-1.83 3.052 0 0 .077 2.624.06 3.963M308.066 125.995h2.438v-3.959h-2.438z"/>
        </g>
        <g mask="url(#d)">
            <path fill="#3939D3" d="M196.95 67.54l2.555-2.76-3.5.685"/>
            <path fill="#3939D3" d="M187.487 68.18c0 2.798 2.402 5.064 5.366 5.064 2.964 0 5.366-2.266 5.366-5.064 0-2.797-2.402-5.063-5.366-5.063-2.964 0-5.366 2.266-5.366 5.063"/>
            <path fill="#FEFEFE" d="M191.825 70.606c1.057.02 2.126.034 3.098-.036.307-.023.574-.533.2-.694.157-.084.316-.166.385-.35.065-.174-.013-.41-.187-.455.366.095.51-.513.225-.71.15-.134.277-.312.309-.517.032-.205-.05-.436-.223-.535-.115-.065-.25-.067-.38-.07-.44-.002-.88-.006-1.32-.01.12-.718.156-1.5-.194-2.131-.104-.19-.388-.418-.612-.271-.21.136-.152.477-.142.692.044.894-.442 1.792-1.198 2.213 0 0 .05 1.903.039 2.874M189.845 70.604h1.597v-2.872h-1.597z"/>
        </g>
        <g mask="url(#d)">
            <path fill="#3939D3" d="M221.936 30.522a7.879 7.879 0 0 0 1.731-4.935 7.917 7.917 0 0 0-7.918-7.918 7.917 7.917 0 0 0-7.918 7.918 7.918 7.918 0 0 0 12.305 6.59l3.066 1.636-1.266-3.291z"/>
            <path fill="#FFF" d="M212.41 23.425a1.932 1.932 0 0 1 2.734.028l.493.503.506-.499a1.934 1.934 0 1 1 2.713 2.755l-1.881 1.853-.01.012a1.932 1.932 0 0 1-2.734-.029l-1.85-1.889a1.933 1.933 0 0 1 .029-2.734"/>
        </g>
    </g>
</svg>
